<svg xmlns="http://www.w3.org/2000/svg" xmlns:xlink="http://www.w3.org/1999/xlink" width="1080" zoomAndPan="magnify" viewBox="0 0 810 809.999993" height="1080" preserveAspectRatio="xMidYMid meet" version="1.0"><defs><clipPath id="b882ad8293"><path d="M 0 66.90625 L 383.507812 66.90625 L 383.507812 729.007812 L 0 729.007812 Z M 0 66.90625 " clip-rule="nonzero"/></clipPath><clipPath id="f8ba3a3bdb"><path d="M 409.453125 66.90625 L 792.75 66.90625 L 792.75 729.007812 L 409.453125 729.007812 Z M 409.453125 66.90625 " clip-rule="nonzero"/></clipPath><clipPath id="7bdb39ee98"><path d="M 206 129 L 604.683594 129 L 604.683594 528 L 206 528 Z M 206 129 " clip-rule="nonzero"/></clipPath></defs><g clip-path="url(#b882ad8293)"><path fill="#263238" d="M 112.363281 127.847656 C 113.175781 127.523438 114.078125 127.164062 115.046875 126.78125 C 116.039062 126.410156 117.101562 126.011719 118.222656 125.589844 C 120.417969 124.726562 122.839844 123.78125 125.355469 122.792969 C 127.804688 121.785156 130.351562 120.746094 132.867188 119.714844 C 135.425781 118.734375 137.960938 117.796875 140.28125 116.867188 C 137.851562 117.441406 135.246094 118.113281 132.597656 118.859375 C 130.027344 119.667969 127.445312 120.566406 124.921875 121.476562 C 119.921875 123.324219 115.117188 125.15625 111.941406 126.761719 C 111.171875 121.078125 115.460938 116.25 121.71875 113.765625 C 124.808594 112.484375 128.664062 112.023438 132.609375 112.261719 C 136.574219 112.511719 140.71875 113.550781 144.761719 115.484375 C 143.605469 117.425781 142.324219 119.1875 140.945312 120.773438 C 139.578125 122.371094 138.0625 123.75 136.660156 125.09375 C 133.769531 127.714844 130.625 129.621094 127.523438 130.777344 C 121.265625 133.019531 115.5 132.558594 112.363281 127.847656 Z M 86.265625 168.363281 C 89.765625 166.503906 94.59375 163.738281 99.632812 160.757812 C 100.871094 159.992188 102.210938 159.269531 103.554688 158.546875 C 104.878906 157.820312 106.214844 157.085938 107.539062 156.355469 C 110.171875 154.890625 112.730469 153.441406 115.085938 152.058594 C 110.039062 154.082031 104.234375 156.65625 98.925781 159.371094 C 93.785156 162.1875 89 165.054688 85.6875 167.257812 C 84.871094 164.214844 85.394531 161.175781 86.929688 158.425781 C 88.460938 155.679688 90.949219 153.195312 94.363281 151.460938 C 97.714844 149.691406 101.722656 148.515625 106.046875 148.171875 C 110.390625 147.839844 114.972656 148.296875 119.765625 149.882812 C 115.992188 159.082031 109.515625 165.5625 103.335938 169.195312 C 97.023438 172.699219 90.339844 172.953125 86.265625 168.363281 Z M 65.507812 214.25 C 67.234375 212.941406 69.28125 211.335938 71.507812 209.546875 C 73.765625 207.773438 76.066406 205.769531 78.738281 203.828125 C 81.304688 201.867188 83.964844 199.835938 86.589844 197.832031 C 89.210938 195.84375 91.582031 193.816406 94.085938 192.054688 C 91.347656 193.449219 88.746094 195.167969 85.984375 196.933594 C 83.246094 198.707031 80.472656 200.589844 77.804688 202.472656 C 76.480469 203.425781 75.121094 204.34375 73.921875 205.304688 C 72.726562 206.273438 71.570312 207.21875 70.464844 208.113281 C 68.265625 209.941406 66.292969 211.652344 64.683594 213.121094 C 63.285156 209.964844 63.335938 206.570312 64.519531 203.328125 C 64.824219 202.519531 65.167969 201.710938 65.632812 200.9375 C 66.109375 200.167969 66.65625 199.417969 67.261719 198.691406 C 68.472656 197.230469 69.929688 195.859375 71.585938 194.621094 C 74.90625 192.152344 78.984375 190.203125 83.625 189.164062 C 88.367188 188.167969 93.558594 188.035156 98.910156 188.984375 C 98.191406 191.597656 97.195312 194.011719 96.167969 196.316406 C 95.199219 198.644531 94.058594 200.800781 92.78125 202.773438 C 90.261719 206.726562 87.050781 209.894531 84.054688 212.355469 C 77.871094 217.175781 70.703125 218.566406 65.507812 214.25 Z M 51.398438 265.113281 C 53.027344 263.414062 54.941406 261.34375 57.015625 259.046875 C 58.066406 257.90625 59.097656 256.691406 60.265625 255.46875 C 61.441406 254.253906 62.652344 252.996094 63.886719 251.71875 C 68.824219 246.625 73.695312 241.195312 78.429688 236.597656 C 73.0625 240.476562 67.703125 245.476562 62.621094 250.425781 C 57.414062 255.335938 53.261719 260.367188 50.300781 264.066406 C 48.242188 260.894531 47.707031 257.226562 48.410156 253.53125 C 49.3125 249.875 51.484375 246.207031 54.601562 242.996094 C 56.160156 241.386719 57.960938 239.890625 59.957031 238.566406 C 61.941406 237.234375 64.316406 236.125 66.742188 235.203125 C 71.644531 233.363281 77.171875 232.390625 83.050781 232.566406 C 82.417969 238.394531 80.621094 243.59375 78.726562 248.273438 C 77.707031 250.589844 76.511719 252.734375 75.1875 254.691406 C 73.894531 256.648438 72.316406 258.378906 70.929688 259.949219 C 65.15625 266.144531 57.710938 268.871094 51.398438 265.113281 Z M 45.359375 320.316406 C 48.261719 316.121094 51.847656 310.109375 56.320312 303.835938 C 58.429688 300.726562 60.617188 297.5 62.785156 294.304688 C 63.796875 292.726562 64.984375 291.183594 66.074219 289.667969 C 67.160156 288.15625 68.226562 286.671875 69.257812 285.238281 C 66.847656 287.773438 64.199219 290.570312 61.761719 293.523438 C 59.386719 296.484375 57.015625 299.582031 54.753906 302.652344 C 53.632812 304.210938 52.527344 305.738281 51.457031 307.222656 C 50.382812 308.726562 49.371094 310.199219 48.527344 311.625 C 46.769531 314.480469 45.222656 317.125 43.984375 319.367188 C 41.25 316.351562 39.964844 312.523438 40.144531 308.449219 C 40.46875 304.390625 42.132812 300.085938 44.886719 296.113281 C 46.285156 294.132812 47.878906 292.21875 49.851562 290.46875 C 51.859375 288.722656 54.105469 287.125 56.558594 285.726562 C 61.460938 282.933594 67.183594 280.964844 73.480469 280.167969 C 73.640625 283.320312 73.511719 286.359375 73.128906 289.265625 C 72.9375 290.71875 72.6875 292.136719 72.375 293.523438 C 72.136719 294.914062 71.863281 296.277344 71.523438 297.601562 C 70.195312 302.878906 67.902344 307.554688 65.230469 311.371094 C 60.175781 318.976562 52.734375 323.210938 45.359375 320.316406 Z M 48.628906 378.695312 C 49.792969 376.210938 51.140625 373.207031 52.589844 369.902344 C 53.304688 368.261719 54.054688 366.535156 54.828125 364.75 C 55.210938 363.863281 55.597656 362.964844 55.988281 362.054688 C 56.421875 361.140625 56.859375 360.21875 57.300781 359.289062 C 59.015625 355.625 60.792969 351.824219 62.546875 348.066406 C 62.972656 347.140625 63.394531 346.21875 63.816406 345.300781 C 64.242188 344.390625 64.730469 343.476562 65.171875 342.582031 C 66.058594 340.792969 66.933594 339.039062 67.777344 337.34375 C 66.707031 338.894531 65.617188 340.523438 64.519531 342.210938 C 63.972656 343.0625 63.421875 343.917969 62.867188 344.785156 C 62.339844 345.652344 61.851562 346.53125 61.34375 347.417969 C 59.328125 350.96875 57.332031 354.671875 55.453125 358.332031 C 53.496094 362 51.972656 365.589844 50.578125 368.933594 C 49.183594 372.277344 47.980469 375.363281 47.046875 377.964844 C 43.632812 375.265625 41.707031 371.421875 41.136719 367.074219 C 40.992188 365.988281 40.933594 364.871094 40.960938 363.730469 C 41.035156 362.585938 41.207031 361.421875 41.453125 360.246094 C 41.949219 357.894531 42.769531 355.5 43.894531 353.148438 C 45.015625 350.792969 46.445312 348.480469 48.15625 346.28125 C 49.921875 344.078125 52.066406 341.984375 54.410156 340.078125 C 59.121094 336.253906 64.84375 333.175781 71.382812 331.242188 C 72.875 337.859375 72.761719 344.203125 72.382812 350.007812 C 71.855469 355.820312 70.175781 361.164062 68.238281 365.636719 C 64.113281 374.566406 56.921875 380.414062 48.628906 378.695312 Z M 63.140625 438.726562 C 63.847656 435.902344 64.636719 432.496094 65.464844 428.769531 C 66.332031 425.023438 67.476562 420.882812 68.511719 416.6875 C 69.03125 414.601562 69.558594 412.476562 70.09375 410.335938 C 70.617188 408.214844 71.308594 406.050781 71.890625 403.941406 C 73.101562 399.703125 74.242188 395.589844 75.261719 391.769531 C 73.675781 395.382812 72.078125 399.34375 70.519531 403.464844 C 69.738281 405.527344 68.972656 407.628906 68.222656 409.742188 C 67.570312 411.832031 66.945312 413.933594 66.34375 416.023438 C 65.140625 420.199219 64.046875 424.316406 63.117188 428.132812 C 62.347656 431.894531 61.738281 435.355469 61.304688 438.261719 C 59.222656 437.1875 57.472656 435.738281 56.050781 434.003906 C 55.339844 433.136719 54.714844 432.199219 54.167969 431.199219 C 53.65625 430.1875 53.265625 429.101562 52.9375 427.980469 C 51.660156 423.464844 51.648438 418.179688 53.097656 412.808594 C 54.707031 407.390625 57.625 401.933594 61.765625 397.082031 C 63.800781 394.660156 66.277344 392.359375 69.039062 390.265625 C 71.792969 388.179688 74.820312 386.304688 78.117188 384.6875 C 80.492188 391.40625 82.253906 397.875 82.519531 404.113281 C 82.570312 405.675781 82.65625 407.191406 82.691406 408.679688 C 82.714844 410.167969 82.667969 411.632812 82.550781 413.066406 C 82.320312 415.933594 81.828125 418.679688 81.101562 421.25 C 79.742188 426.355469 77.628906 430.707031 74.570312 433.84375 C 71.542969 436.96875 67.695312 438.828125 63.140625 438.726562 Z M 90.179688 498.378906 C 90.332031 495.273438 90.453125 491.546875 90.550781 487.480469 C 90.777344 483.390625 91.027344 478.890625 91.285156 474.21875 C 91.433594 471.902344 91.457031 469.628906 91.695312 467.25 C 91.898438 464.90625 92.097656 462.546875 92.300781 460.207031 C 92.707031 455.550781 92.945312 451.09375 93.488281 446.816406 C 92.332031 450.992188 91.542969 455.40625 90.761719 460.011719 C 90.03125 464.597656 89.191406 469.4375 88.886719 473.988281 C 88.496094 478.585938 88.207031 483.101562 88.027344 487.273438 C 87.90625 491.410156 88.050781 495.113281 88.175781 498.242188 C 83.410156 496.828125 79.53125 493.675781 77.332031 489.171875 C 76.183594 486.949219 75.347656 484.449219 74.835938 481.777344 C 74.582031 480.4375 74.410156 479.058594 74.320312 477.644531 C 74.25 476.226562 74.332031 474.734375 74.460938 473.25 C 75.046875 467.265625 76.882812 461.035156 80.339844 455.105469 C 83.875 449.136719 88.789062 443.585938 95.023438 438.945312 C 97.066406 442.144531 98.6875 445.414062 100.039062 448.660156 C 101.53125 451.855469 102.667969 455.066406 103.488281 458.257812 C 103.90625 459.847656 104.207031 461.449219 104.496094 463.011719 C 104.828125 464.550781 105.078125 466.082031 105.253906 467.59375 C 105.605469 470.621094 105.652344 473.578125 105.417969 476.398438 C 105.140625 479.242188 104.78125 481.851562 104.074219 484.285156 C 103.375 486.71875 102.394531 488.953125 101.128906 490.898438 C 98.605469 494.785156 94.96875 497.535156 90.179688 498.378906 Z M 130.96875 554.808594 C 130.039062 548.210938 128.242188 539.273438 127.015625 529.460938 C 126.671875 527.0625 126.320312 524.617188 125.964844 522.152344 C 125.601562 519.71875 125.410156 517.171875 125.117188 514.726562 C 124.839844 512.289062 124.566406 509.867188 124.300781 507.492188 C 124.160156 506.320312 124.019531 505.160156 123.882812 504.015625 C 123.746094 502.875 123.683594 501.703125 123.578125 500.582031 C 123.507812 501.710938 123.429688 502.878906 123.390625 504.042969 C 123.386719 505.195312 123.378906 506.367188 123.371094 507.546875 C 123.375 509.921875 123.410156 512.363281 123.472656 514.839844 C 123.539062 517.320312 123.636719 519.835938 123.765625 522.359375 C 123.980469 524.8125 124.222656 527.28125 124.492188 529.722656 C 124.753906 532.160156 125.046875 534.578125 125.355469 536.929688 C 125.515625 538.109375 125.671875 539.273438 125.828125 540.414062 C 126.007812 541.542969 126.226562 542.625 126.425781 543.699219 C 127.242188 547.972656 128.085938 551.875 128.875 555.121094 C 123.644531 554.65625 119.066406 552.089844 115.640625 548.023438 C 112.359375 543.832031 110.074219 538.289062 109.269531 532.050781 C 108.613281 525.699219 109.316406 518.753906 111.570312 511.941406 C 113.996094 505 117.972656 498.203125 123.492188 492.085938 C 124.875 493.535156 126.164062 495.023438 127.359375 496.535156 C 128.558594 498.039062 129.617188 499.605469 130.753906 501.085938 C 132.949219 504.09375 134.777344 507.195312 136.273438 510.34375 C 136.996094 511.9375 137.734375 513.46875 138.398438 514.996094 C 139.050781 516.53125 139.621094 518.074219 140.109375 519.617188 C 141.105469 522.679688 141.691406 525.804688 142.113281 528.726562 C 143.824219 540.316406 140.484375 551.011719 130.96875 554.808594 Z M 186.371094 604.496094 C 185.71875 602.902344 184.996094 601.140625 184.214844 599.238281 C 183.828125 598.300781 183.421875 597.324219 183.003906 596.320312 C 182.613281 595.292969 182.207031 594.234375 181.792969 593.144531 C 180.140625 588.898438 178.328125 584.222656 176.441406 579.363281 C 174.738281 574.527344 172.96875 569.503906 171.21875 564.542969 L 170.570312 562.726562 L 169.988281 560.867188 C 169.597656 559.640625 169.210938 558.421875 168.828125 557.210938 C 168.054688 554.835938 167.296875 552.503906 166.566406 550.246094 C 167.359375 554.878906 168.316406 559.9375 169.535156 565.039062 C 170.847656 570.027344 172.332031 575.152344 173.902344 580.152344 C 175.515625 585.109375 177.378906 589.726562 179.105469 594.074219 C 179.992188 596.21875 180.8125 598.332031 181.703125 600.183594 C 182.589844 602.035156 183.445312 603.757812 184.246094 605.316406 C 181.46875 605.707031 178.714844 605.558594 176.148438 604.804688 C 173.613281 604.007812 171.207031 602.695312 168.988281 600.964844 C 166.78125 599.214844 164.71875 597.101562 163 594.558594 C 161.320312 591.96875 159.902344 589.046875 158.804688 585.894531 C 157.726562 582.714844 156.863281 579.417969 156.5625 575.777344 C 156.242188 572.152344 156.285156 568.398438 156.734375 564.589844 C 157.183594 560.78125 158.035156 556.921875 159.324219 553.085938 C 160.648438 549.210938 162.441406 545.316406 164.640625 541.539062 C 167.988281 544.050781 171.289062 546.449219 174.121094 549.148438 C 175.550781 550.484375 176.886719 551.867188 178.140625 553.285156 C 179.40625 554.695312 180.6875 556.027344 181.824219 557.457031 C 184.132812 560.277344 186.085938 563.246094 187.734375 566.242188 C 189.480469 569.128906 190.886719 572.085938 191.941406 575.039062 C 193.011719 577.980469 193.675781 580.996094 194.082031 583.777344 C 194.488281 586.5625 194.511719 589.277344 194.121094 591.832031 C 193.332031 596.945312 190.890625 601.425781 186.371094 604.496094 Z M 256.242188 643.003906 C 255.179688 641.542969 254.003906 639.925781 252.734375 638.183594 C 251.503906 636.394531 250.183594 634.476562 248.792969 632.460938 C 247.417969 630.480469 245.972656 628.402344 244.476562 626.25 C 243.738281 625.195312 242.984375 624.121094 242.222656 623.03125 C 241.46875 621.941406 240.746094 620.761719 240 619.621094 C 238.523438 617.347656 237.023438 615.027344 235.515625 612.691406 C 234.769531 611.546875 234.019531 610.394531 233.269531 609.246094 L 232.15625 607.535156 L 231.085938 605.757812 C 228.289062 601.140625 225.523438 596.574219 222.921875 592.289062 C 224.8125 596.855469 227.0625 601.683594 229.496094 606.652344 C 230.691406 609.179688 232.035156 611.5625 233.402344 613.949219 C 234.769531 616.339844 236.171875 618.730469 237.585938 621.085938 C 240.375 625.886719 243.433594 630.105469 246.28125 634.097656 C 247.710938 636.078125 249.105469 637.964844 250.4375 639.71875 C 251.757812 641.503906 253.097656 642.953125 254.296875 644.367188 C 243.296875 648.792969 230.976562 642.605469 223.441406 630.671875 C 221.503906 627.789062 219.964844 624.363281 218.753906 620.75 C 217.542969 617.136719 216.679688 613.300781 216.226562 609.3125 C 215.742188 605.371094 215.777344 601.101562 216.238281 596.800781 C 216.695312 592.496094 217.601562 588.128906 218.976562 583.742188 C 223.082031 585.355469 226.800781 587.378906 230.421875 589.292969 C 232.207031 590.292969 233.914062 591.363281 235.539062 592.492188 C 237.175781 593.597656 238.683594 594.863281 240.226562 595.964844 C 243.265625 598.253906 245.992188 600.765625 248.390625 603.425781 C 248.992188 604.089844 249.574219 604.765625 250.132812 605.449219 C 250.714844 606.089844 251.269531 606.742188 251.808594 607.402344 C 252.882812 608.714844 253.871094 610.066406 254.773438 611.441406 C 256.570312 614.183594 258.019531 617.015625 259.070312 619.855469 C 260.121094 622.699219 260.84375 625.382812 261.0625 628.113281 C 261.511719 633.53125 260.121094 638.730469 256.242188 643.003906 Z M 339.527344 664.757812 C 333.597656 659.984375 325.304688 652.8125 316.804688 645.351562 C 312.675781 641.507812 308.390625 637.519531 304.152344 633.578125 C 300.066406 629.472656 296.109375 625.527344 292.429688 621.945312 C 295.523438 626.066406 299.023438 630.453125 302.777344 634.890625 C 306.554688 639.21875 310.652344 643.351562 314.75 647.460938 C 316.789062 649.550781 318.878906 651.390625 320.941406 653.191406 C 323.003906 654.996094 325.039062 656.738281 327.011719 658.390625 C 328.992188 660.019531 330.894531 661.660156 332.730469 662.996094 C 334.5625 664.335938 336.296875 665.570312 337.898438 666.667969 C 335.390625 668.503906 332.613281 669.808594 329.707031 670.410156 C 326.804688 670.953125 323.757812 670.929688 320.679688 670.390625 C 319.136719 670.117188 317.589844 669.722656 316.046875 669.207031 C 314.503906 668.691406 312.964844 668.058594 311.476562 667.191406 C 308.484375 665.519531 305.578125 663.398438 302.871094 660.882812 C 301.519531 659.625 300.214844 658.273438 298.972656 656.832031 C 297.742188 655.355469 296.59375 653.710938 295.507812 652.03125 C 293.34375 648.652344 291.476562 644.953125 289.988281 641 C 289.25 639.023438 288.601562 636.984375 288.058594 634.886719 C 287.523438 632.75 287.109375 630.527344 286.792969 628.277344 C 286.164062 623.769531 285.976562 619.074219 286.265625 614.25 C 288.550781 614.550781 290.765625 614.957031 292.917969 615.460938 C 295.074219 615.9375 297.222656 616.335938 299.277344 616.921875 C 301.339844 617.484375 303.335938 618.140625 305.269531 618.871094 C 306.234375 619.234375 307.183594 619.632812 308.121094 620.023438 C 309.070312 620.375 310.003906 620.742188 310.921875 621.136719 C 314.585938 622.6875 317.988281 624.546875 321.109375 626.644531 C 324.253906 628.625 327.136719 630.71875 329.675781 633.070312 C 332.222656 635.375 334.417969 637.984375 336.25 640.484375 C 338.085938 642.992188 339.515625 645.632812 340.464844 648.335938 C 342.359375 653.738281 342.332031 659.398438 339.527344 664.757812 Z M 93.191406 139.007812 C 93.132812 134.347656 93.820312 127.949219 94.75 120.796875 C 95.003906 119.003906 95.261719 117.175781 95.519531 115.335938 C 95.664062 114.417969 95.789062 113.476562 95.960938 112.566406 L 96.519531 109.847656 C 97.28125 106.226562 98.109375 102.617188 98.972656 99.21875 C 98.265625 106.097656 97.121094 113.597656 96.550781 120.820312 C 96.183594 124.347656 95.835938 127.746094 95.511719 130.84375 C 95.339844 132.367188 95.175781 133.820312 95.023438 135.175781 C 94.898438 136.546875 94.789062 137.824219 94.683594 138.976562 C 96.464844 138.558594 97.972656 137.769531 99.417969 136.804688 C 100.855469 135.832031 102.101562 134.597656 103.148438 133.136719 C 105.238281 130.210938 106.535156 126.386719 107.007812 121.992188 C 108.207031 113.449219 106.28125 102.578125 100.183594 92.683594 C 95.367188 97.085938 91.484375 102.019531 88.648438 106.933594 C 86 111.988281 84.433594 117.042969 83.890625 121.53125 C 83.628906 123.78125 83.597656 125.882812 83.882812 127.832031 C 84.195312 129.800781 84.761719 131.574219 85.5625 133.101562 C 87.171875 136.167969 89.746094 138.246094 93.191406 139.007812 Z M 68.183594 183.660156 C 67.523438 178.585938 67.132812 171.332031 66.9375 163.183594 C 66.859375 161.128906 66.964844 159.117188 67.035156 157.042969 C 67.113281 154.976562 67.214844 152.886719 67.335938 150.792969 C 67.601562 146.625 67.839844 142.390625 68.363281 138.496094 C 68.535156 146.132812 68.730469 154.820312 68.910156 162.929688 C 69.351562 171.023438 69.683594 178.3125 69.769531 183.414062 C 73.636719 181.914062 76.480469 179.183594 78.273438 175.578125 C 79.171875 173.78125 79.816406 171.757812 80.203125 169.566406 C 80.578125 167.371094 80.902344 165.105469 80.863281 162.65625 C 80.839844 157.789062 79.816406 152.410156 77.785156 146.957031 C 75.820312 141.546875 72.972656 136.140625 68.886719 131.132812 C 67.664062 132.519531 66.507812 133.9375 65.425781 135.371094 C 64.886719 136.089844 64.359375 136.808594 63.859375 137.535156 C 63.394531 138.28125 62.941406 139.035156 62.507812 139.789062 C 60.777344 142.804688 59.332031 145.84375 58.175781 148.835938 C 57.597656 150.335938 57.089844 151.816406 56.652344 153.28125 C 56.4375 154.011719 56.234375 154.738281 56.054688 155.457031 C 55.90625 156.191406 55.773438 156.921875 55.660156 157.640625 C 55.199219 160.53125 55.015625 163.285156 55.101562 165.84375 C 55.273438 170.96875 56.503906 175.292969 58.742188 178.390625 C 61.042969 181.53125 64.246094 183.398438 68.183594 183.660156 Z M 49.335938 233.78125 C 48.601562 231.074219 47.789062 227.746094 46.960938 223.972656 C 46.550781 222.082031 46.132812 220.089844 45.71875 218.003906 C 45.332031 215.929688 44.835938 213.730469 44.585938 211.546875 C 43.988281 207.152344 43.441406 202.515625 42.992188 197.855469 C 42.785156 195.535156 42.511719 193.171875 42.433594 190.898438 C 42.355469 188.628906 42.304688 186.382812 42.28125 184.195312 C 43.394531 192.609375 45.324219 202.289062 46.761719 210.949219 C 46.945312 212.035156 47.128906 213.109375 47.308594 214.167969 C 47.53125 215.234375 47.753906 216.292969 47.96875 217.332031 C 48.394531 219.394531 48.804688 221.390625 49.195312 223.289062 C 49.960938 227.070312 50.613281 230.445312 51.09375 233.226562 C 59.128906 228.664062 61.28125 219.304688 59.765625 208.683594 C 57.8125 197.957031 52.179688 185.753906 41.621094 175.921875 C 39.417969 179.398438 37.539062 182.964844 35.980469 186.519531 C 35.597656 187.40625 35.214844 188.289062 34.882812 189.183594 C 34.578125 190.089844 34.292969 190.992188 34.027344 191.882812 C 33.496094 193.679688 33.042969 195.457031 32.664062 197.214844 C 31.90625 200.722656 31.460938 204.121094 31.304688 207.339844 C 31.160156 210.554688 31.527344 213.664062 32.03125 216.460938 C 34.140625 227.734375 40.503906 234.558594 49.335938 233.78125 Z M 38.144531 288.800781 C 36.867188 286 35.398438 282.53125 33.835938 278.574219 C 33.054688 276.597656 32.25 274.496094 31.4375 272.300781 C 31.035156 271.207031 30.601562 270.082031 30.222656 268.941406 C 29.871094 267.804688 29.515625 266.648438 29.160156 265.484375 C 27.738281 260.804688 26.335938 255.835938 25.035156 250.828125 C 24.332031 248.308594 23.863281 245.832031 23.382812 243.359375 C 22.90625 240.894531 22.460938 238.449219 22.054688 236.058594 C 22.753906 238.3125 23.476562 240.644531 24.214844 243.023438 C 24.574219 244.203125 24.9375 245.390625 25.304688 246.585938 C 25.648438 247.777344 26.039062 248.976562 26.476562 250.195312 C 28.113281 254.960938 29.777344 259.792969 31.378906 264.460938 C 32.195312 266.765625 32.859375 268.992188 33.726562 271.171875 C 34.554688 273.339844 35.351562 275.429688 36.117188 277.429688 C 37.621094 281.394531 38.933594 284.933594 39.960938 287.859375 C 43.859375 284.679688 46.0625 280.472656 46.742188 275.640625 C 46.917969 274.433594 46.980469 273.1875 46.980469 271.90625 C 47.03125 270.640625 46.992188 269.339844 46.867188 268.007812 C 46.613281 265.351562 46.003906 262.585938 45.0625 259.753906 C 44.136719 256.933594 42.808594 254.027344 41.292969 251.152344 C 39.835938 248.289062 38.058594 245.417969 35.980469 242.605469 C 31.820312 236.992188 26.449219 231.605469 19.9375 227.144531 C 12.5625 243.832031 12.011719 261.191406 16.347656 273.015625 C 20.632812 284.941406 28.699219 291.210938 38.144531 288.800781 Z M 35.980469 347.75 C 33.96875 344.976562 31.886719 341.503906 29.480469 337.527344 C 28.292969 335.539062 27.0625 333.425781 25.800781 331.207031 C 24.492188 328.988281 23.328125 326.667969 22.160156 324.269531 C 19.804688 319.472656 17.417969 314.363281 15.125 309.183594 C 12.957031 304.011719 11.136719 298.78125 9.386719 293.753906 C 11.664062 298.355469 14.097656 303.265625 16.5625 308.246094 C 19.171875 313.101562 21.816406 318.019531 24.367188 322.769531 C 25.648438 325.105469 26.777344 327.386719 28.066406 329.582031 C 29.335938 331.761719 30.5625 333.875 31.734375 335.886719 C 34.054688 339.890625 36.074219 343.460938 37.707031 346.425781 C 41.316406 342.292969 42.953125 337.371094 42.828125 332.0625 C 42.808594 330.738281 42.636719 329.382812 42.441406 328.011719 C 42.269531 326.640625 42 325.25 41.625 323.84375 C 40.878906 321.03125 39.734375 318.164062 38.21875 315.289062 C 37.464844 313.851562 36.613281 312.410156 35.675781 310.972656 C 35.207031 310.257812 34.710938 309.539062 34.207031 308.824219 C 33.734375 308.113281 33.234375 307.402344 32.71875 306.691406 C 30.648438 303.863281 28.234375 301.078125 25.507812 298.40625 C 22.78125 295.734375 19.734375 293.175781 16.40625 290.820312 C 13.070312 288.464844 9.441406 286.304688 5.660156 284.460938 C 5.488281 285.066406 5.316406 285.664062 5.144531 286.261719 C 5.015625 286.863281 4.886719 287.46875 4.757812 288.066406 C 4.511719 289.273438 4.289062 290.472656 4.089844 291.671875 C 3.691406 294.058594 3.390625 296.433594 3.179688 298.773438 C 2.96875 301.117188 2.851562 303.425781 2.816406 305.6875 C 2.746094 307.945312 3.019531 310.171875 3.226562 312.332031 C 4.230469 320.980469 6.234375 328.65625 9.742188 334.675781 C 13.101562 340.710938 17.199219 345.089844 21.722656 347.375 C 26.335938 349.664062 31.222656 349.871094 35.980469 347.75 Z M 44.390625 409.277344 C 41.808594 406.6875 38.703125 403.4375 35.351562 399.660156 C 32.175781 395.847656 28.71875 391.511719 25.15625 386.84375 C 23.328125 384.515625 21.660156 382.074219 19.996094 379.578125 C 18.320312 377.085938 16.640625 374.535156 14.988281 371.960938 C 11.566406 366.820312 8.742188 361.527344 6.023438 356.417969 C 12.417969 365.628906 20.164062 375.757812 27.183594 384.835938 C 30.808594 389.285156 34.300781 393.578125 37.488281 397.488281 C 39 399.425781 40.636719 401.214844 42.070312 402.894531 C 43.496094 404.570312 44.820312 406.128906 46.023438 407.542969 C 49.007812 402.464844 49.546875 396.988281 48.671875 391.316406 C 48.179688 388.488281 47.207031 385.640625 45.792969 382.800781 C 45.4375 382.089844 45.058594 381.382812 44.648438 380.675781 C 44.28125 379.960938 43.886719 379.25 43.464844 378.539062 C 42.621094 377.117188 41.675781 375.707031 40.628906 374.308594 C 38.539062 371.507812 36.050781 368.765625 33.214844 366.125 C 31.765625 364.808594 30.34375 363.503906 28.824219 362.238281 C 27.308594 360.972656 25.703125 359.742188 24.019531 358.558594 C 17.300781 353.816406 9.230469 349.746094 0.390625 347.117188 C -0.539062 357.925781 0.152344 368.40625 2.816406 377.523438 C 5.125 386.695312 9.34375 394.472656 13.871094 400.335938 C 15.023438 401.800781 16.15625 403.152344 17.417969 404.359375 C 18.683594 405.566406 19.972656 406.644531 21.277344 407.59375 C 23.878906 409.484375 26.53125 410.84375 29.171875 411.628906 C 34.453125 413.207031 39.679688 412.480469 44.390625 409.277344 Z M 64.949219 471.644531 C 58.234375 467.3125 49.421875 460.25 40.074219 451.707031 C 35.59375 447.371094 30.804688 442.730469 26.351562 437.871094 C 22.035156 432.976562 17.726562 427.957031 13.851562 423.042969 C 18.214844 427.234375 22.875 431.710938 27.605469 436.25 C 29.875 438.5 32.386719 440.664062 34.785156 442.824219 C 37.175781 444.957031 39.550781 447.078125 41.886719 449.164062 C 43.039062 450.191406 44.179688 451.210938 45.304688 452.21875 C 46.480469 453.191406 47.644531 454.15625 48.785156 455.105469 C 51.039062 456.980469 53.222656 458.792969 55.300781 460.527344 C 57.375 462.238281 59.265625 463.886719 61.117188 465.375 C 62.976562 466.851562 64.703125 468.222656 66.269531 469.46875 C 67.328125 466.488281 67.648438 463.550781 67.589844 460.582031 C 67.550781 457.597656 66.941406 454.660156 65.824219 451.789062 C 63.449219 446.089844 59.597656 440.457031 53.957031 435.390625 C 52.570312 434.117188 51.007812 432.898438 49.476562 431.679688 C 47.953125 430.457031 46.332031 429.273438 44.617188 428.128906 C 41.199219 425.851562 37.417969 423.746094 33.339844 421.878906 C 29.203125 420.023438 25.003906 418.351562 20.488281 417.015625 C 15.984375 415.683594 11.226562 414.675781 6.285156 414.101562 C 6.738281 419.984375 7.5 425.730469 9.085938 431.066406 C 9.824219 433.75 10.648438 436.359375 11.542969 438.882812 C 12.449219 441.40625 13.375 443.859375 14.570312 446.148438 C 16.859375 450.757812 19.390625 454.972656 22.070312 458.703125 C 23.367188 460.589844 24.910156 462.273438 26.382812 463.867188 C 27.871094 465.457031 29.378906 466.914062 30.902344 468.242188 C 33.964844 470.886719 36.992188 473.019531 40.117188 474.515625 C 43.273438 475.992188 46.371094 476.894531 49.335938 477.191406 C 55.261719 477.792969 60.636719 475.960938 64.949219 471.644531 Z M 99.058594 532.339844 C 97.109375 531.527344 94.953125 530.59375 92.625 529.542969 C 90.292969 528.488281 87.773438 527.328125 85.269531 525.953125 C 82.726562 524.609375 80.046875 523.148438 77.269531 521.589844 C 75.875 520.796875 74.460938 519.992188 73.027344 519.179688 C 72.308594 518.761719 71.589844 518.34375 70.863281 517.921875 C 70.164062 517.476562 69.460938 517.027344 68.757812 516.578125 C 65.929688 514.765625 63.042969 512.867188 60.128906 510.902344 C 57.230469 508.933594 54.222656 506.941406 51.480469 504.773438 C 48.679688 502.632812 45.894531 500.453125 43.160156 498.253906 C 41.792969 497.144531 40.4375 496.046875 39.101562 494.957031 C 37.765625 493.855469 36.550781 492.703125 35.304688 491.582031 C 46.195312 498.941406 58.546875 506.824219 70.132812 513.527344 C 71.558594 514.371094 72.972656 515.207031 74.371094 516.035156 C 75.808594 516.816406 77.230469 517.59375 78.628906 518.359375 C 81.386719 519.863281 84.054688 521.328125 86.597656 522.714844 C 91.554688 525.539062 96.296875 527.808594 100.03125 529.8125 C 100.492188 526.460938 100.292969 523.25 99.503906 520.207031 C 98.816406 517.089844 97.585938 514.117188 95.808594 511.335938 C 92.136719 505.84375 86.902344 500.738281 79.921875 496.574219 C 76.367188 494.519531 72.746094 492.507812 68.636719 490.824219 C 64.554688 489.125 60.132812 487.671875 55.445312 486.527344 C 46.308594 484.128906 36.085938 482.917969 25.410156 483.644531 C 26.265625 486.703125 27.226562 489.703125 28.28125 492.621094 C 29.34375 495.53125 30.433594 498.398438 31.828125 501.058594 C 34.539062 506.410156 37.453125 511.449219 40.734375 515.90625 C 44.121094 520.308594 47.675781 524.246094 51.285156 527.640625 C 53.046875 529.367188 55.035156 530.824219 56.910156 532.207031 C 58.808594 533.582031 60.707031 534.8125 62.585938 535.894531 C 70 540.3125 77.566406 542.074219 83.871094 541.476562 C 90.207031 540.867188 95.449219 537.800781 99.058594 532.339844 Z M 147.707031 588.394531 C 143.308594 587.527344 137.976562 586.257812 131.945312 584.671875 C 130.453125 584.261719 128.867188 583.882812 127.332031 583.386719 C 125.789062 582.890625 124.214844 582.378906 122.609375 581.863281 C 119.394531 580.804688 116.054688 579.664062 112.625 578.445312 C 109.144531 577.277344 105.820312 575.808594 102.351562 574.371094 C 98.90625 572.914062 95.417969 571.390625 91.933594 569.820312 C 88.511719 568.199219 85.191406 566.449219 81.867188 564.714844 C 78.570312 562.957031 75.25 561.234375 72.167969 559.398438 C 78.679688 562.085938 85.660156 564.816406 92.507812 567.574219 C 99.578125 570.152344 106.613281 572.691406 113.335938 575.019531 C 120.238281 577.179688 126.671875 579.285156 132.5625 581.050781 C 138.550781 582.71875 143.835938 584.210938 148.144531 585.507812 C 147.164062 570.980469 135.972656 561.132812 119.949219 555.109375 C 111.722656 552.289062 102.527344 550.234375 92.238281 549.800781 C 87.0625 549.617188 81.902344 549.625 76.53125 550.144531 C 71.175781 550.648438 65.691406 551.601562 60.199219 553.089844 C 63.300781 559.171875 66.644531 565 70.6875 570.03125 C 74.648438 575.117188 78.71875 579.847656 83.273438 583.71875 C 85.503906 585.6875 87.753906 587.527344 90.007812 589.226562 C 91.132812 590.074219 92.261719 590.890625 93.386719 591.667969 C 94.542969 592.421875 95.71875 593.121094 96.875 593.792969 C 101.519531 596.46875 106.085938 598.574219 110.453125 600.078125 C 119.390625 602.890625 127.535156 603.238281 133.941406 601.261719 C 140.402344 599.25 145.238281 594.820312 147.707031 588.394531 Z M 211.554688 635.515625 C 209.160156 635.597656 206.496094 635.652344 203.59375 635.660156 C 200.710938 635.648438 197.511719 635.707031 194.28125 635.457031 C 191.011719 635.261719 187.550781 635.011719 183.933594 634.707031 C 182.117188 634.539062 180.269531 634.371094 178.402344 634.203125 C 176.511719 634.035156 174.679688 633.71875 172.773438 633.457031 C 165.203125 632.332031 157.085938 631.101562 149.300781 629.15625 C 145.371094 628.234375 141.414062 627.28125 137.527344 626.253906 C 133.730469 625.125 129.972656 623.949219 126.3125 622.757812 C 129.972656 623.433594 133.753906 624.136719 137.613281 624.851562 C 141.46875 625.523438 145.464844 626.070312 149.390625 626.675781 C 153.34375 627.25 157.210938 627.90625 161.144531 628.382812 C 165.050781 628.820312 168.9375 629.253906 172.757812 629.683594 C 180.238281 630.632812 187.636719 630.984375 194.113281 631.511719 C 195.734375 631.636719 197.3125 631.753906 198.847656 631.871094 C 200.382812 631.96875 201.90625 632.003906 203.351562 632.078125 C 206.222656 632.214844 208.894531 632.347656 211.3125 632.464844 C 210.179688 628.789062 208.445312 625.566406 206.191406 622.800781 C 203.964844 619.988281 201.324219 617.457031 198.171875 615.449219 C 196.601562 614.429688 194.917969 613.523438 193.128906 612.722656 C 191.328125 611.941406 189.535156 611.097656 187.582031 610.449219 C 183.707031 609.105469 179.433594 608.183594 174.847656 607.65625 C 170.371094 606.980469 165.574219 606.710938 160.527344 606.855469 C 158.015625 606.914062 155.410156 607.113281 152.8125 607.355469 C 150.234375 607.5625 147.609375 607.882812 144.945312 608.304688 C 139.621094 609.15625 134.148438 610.445312 128.644531 612.207031 C 123.105469 614.019531 117.730469 616.089844 112.355469 618.847656 C 113.480469 620.292969 114.628906 621.710938 115.796875 623.09375 C 117.011719 624.425781 118.246094 625.722656 119.496094 626.992188 C 121.996094 629.53125 124.554688 631.941406 127.152344 634.21875 C 129.703125 636.546875 132.496094 638.5 135.214844 640.410156 C 137.953125 642.304688 140.703125 644.054688 143.441406 645.664062 C 144.128906 646.058594 144.816406 646.449219 145.496094 646.839844 C 146.203125 647.191406 146.902344 647.542969 147.601562 647.890625 C 149.003906 648.570312 150.398438 649.210938 151.789062 649.816406 C 154.566406 651.035156 157.3125 652.101562 160.003906 653.019531 C 161.355469 653.476562 162.675781 653.917969 164.011719 654.28125 C 165.359375 654.621094 166.695312 654.925781 168.011719 655.195312 C 170.640625 655.726562 173.199219 656.117188 175.667969 656.367188 C 180.605469 656.867188 185.167969 656.808594 189.378906 655.988281 C 193.558594 655.226562 197.25 653.925781 200.355469 652.117188 C 206.582031 648.507812 210.46875 642.863281 211.554688 635.515625 Z M 290.066406 668.964844 C 287.628906 669.667969 284.902344 670.402344 281.917969 671.152344 C 278.929688 671.90625 275.679688 672.710938 272.277344 673.285156 C 268.859375 673.910156 265.222656 674.53125 261.40625 675.128906 C 259.503906 675.421875 257.539062 675.742188 255.566406 675.988281 C 253.589844 676.1875 251.589844 676.386719 249.570312 676.589844 C 245.507812 676.976562 241.3125 677.320312 237.035156 677.613281 C 232.785156 677.851562 228.53125 677.867188 224.207031 677.921875 C 215.515625 678.125 207.011719 677.507812 198.796875 676.863281 C 202.765625 676.664062 206.871094 676.460938 211.058594 676.25 C 213.140625 676.128906 215.191406 676.082031 217.3125 675.894531 C 219.417969 675.710938 221.539062 675.53125 223.667969 675.347656 C 227.847656 674.980469 232.058594 674.609375 236.246094 674.238281 C 240.417969 673.789062 244.574219 673.203125 248.578125 672.699219 C 250.570312 672.441406 252.546875 672.183594 254.5 671.929688 C 256.433594 671.691406 258.34375 671.425781 260.246094 671.078125 C 263.988281 670.441406 267.613281 669.828125 271.066406 669.242188 C 277.867188 668.199219 284.023438 666.761719 289.015625 665.839844 C 286.910156 662.363281 284.308594 659.511719 281.285156 657.257812 C 278.304688 654.871094 274.929688 653.003906 271.179688 651.734375 C 269.3125 651.089844 267.34375 650.601562 265.308594 650.21875 C 263.300781 649.757812 261.207031 649.429688 259.042969 649.234375 C 256.878906 649.039062 254.636719 648.972656 252.328125 649.03125 C 250.019531 649.085938 247.625 649.320312 245.25 649.492188 C 240.460938 649.921875 235.433594 650.84375 230.246094 652.246094 C 227.636719 652.984375 225.054688 653.699219 222.441406 654.550781 C 219.824219 655.402344 217.179688 656.375 214.523438 657.46875 C 209.230469 659.625 203.808594 662.390625 198.605469 665.40625 C 193.390625 668.445312 188.253906 671.988281 183.363281 676.085938 C 186.441406 678.488281 189.527344 680.851562 192.742188 682.886719 C 195.980469 684.882812 199.25 686.738281 202.523438 688.441406 C 209.011719 691.980469 215.804688 694.328125 222.296875 696.328125 C 223.921875 696.8125 225.539062 697.265625 227.144531 697.683594 C 228.765625 698.039062 230.386719 698.347656 231.980469 698.628906 C 235.175781 699.183594 238.296875 699.597656 241.328125 699.871094 C 247.355469 700.519531 253.175781 700.144531 258.410156 699.441406 C 268.863281 698.117188 277.371094 694.113281 282.832031 688.855469 C 288.320312 683.566406 290.851562 676.773438 290.066406 668.964844 Z M 381.398438 682.765625 C 376.792969 685.476562 371.027344 688.640625 364.355469 692.023438 C 361.03125 693.558594 357.476562 695.148438 353.734375 696.757812 C 351.847656 697.558594 349.925781 698.367188 347.984375 699.1875 C 347 699.59375 346.007812 700.003906 345.011719 700.414062 C 344.011719 700.773438 343.007812 701.136719 341.996094 701.503906 C 333.882812 704.355469 325.136719 707.472656 316.320312 709.605469 C 311.90625 710.738281 307.425781 711.914062 303 712.847656 C 298.585938 713.703125 294.191406 714.492188 289.875 715.207031 C 293.90625 713.984375 298.070312 712.714844 302.320312 711.421875 C 304.414062 710.816406 306.546875 710.058594 308.675781 709.328125 C 310.789062 708.597656 312.917969 707.863281 315.054688 707.125 C 317.164062 706.390625 319.28125 705.65625 321.398438 704.921875 C 323.503906 704.183594 325.589844 703.488281 327.679688 702.632812 C 331.796875 701.007812 335.894531 699.390625 339.917969 697.796875 C 341.890625 697.007812 343.847656 696.226562 345.777344 695.453125 C 347.695312 694.601562 349.585938 693.761719 351.449219 692.933594 C 355.109375 691.304688 358.652344 689.730469 362.03125 688.226562 C 362.863281 687.855469 363.6875 687.488281 364.5 687.128906 C 365.308594 686.734375 366.109375 686.34375 366.894531 685.964844 C 368.457031 685.199219 369.976562 684.457031 371.445312 683.742188 C 374.34375 682.347656 377.039062 681.058594 379.484375 679.882812 C 373.269531 673.828125 365.722656 671.136719 357.390625 670.289062 C 355.304688 670.125 353.164062 670.125 350.976562 670.285156 C 349.882812 670.355469 348.777344 670.503906 347.664062 670.625 C 346.550781 670.730469 345.429688 670.871094 344.296875 671.054688 C 339.765625 671.777344 335.066406 673.113281 330.25 675.019531 C 325.464844 676.738281 320.574219 678.957031 315.636719 681.746094 C 313.175781 683.105469 310.679688 684.71875 308.234375 686.234375 C 305.78125 687.78125 303.328125 689.460938 300.894531 691.261719 C 296.03125 694.871094 291.226562 698.980469 286.636719 703.574219 C 282.082031 708.035156 277.738281 712.972656 273.789062 718.429688 C 288.992188 725.34375 304.878906 728.429688 319.328125 728.9375 C 321.128906 729.050781 322.925781 729.011719 324.695312 728.9375 C 326.464844 728.867188 328.210938 728.769531 329.925781 728.636719 C 333.359375 728.375 336.679688 727.984375 339.863281 727.472656 C 340.65625 727.335938 341.445312 727.203125 342.230469 727.070312 C 343.007812 726.882812 343.78125 726.703125 344.546875 726.519531 C 346.078125 726.144531 347.570312 725.734375 349.027344 725.304688 C 351.9375 724.4375 354.695312 723.46875 357.28125 722.40625 C 359.875 721.316406 362.289062 720.25 364.527344 718.878906 C 366.765625 717.539062 368.820312 716.121094 370.683594 714.632812 C 374.402344 711.664062 377.335938 708.429688 379.417969 705 C 383.59375 698.152344 384.328125 690.550781 381.398438 682.765625 Z M 116.019531 105.15625 C 117.738281 103.03125 119.867188 100.5 122.273438 97.722656 C 123.484375 96.34375 124.753906 94.894531 126.070312 93.398438 C 126.738281 92.664062 127.390625 91.886719 128.105469 91.152344 C 128.832031 90.429688 129.566406 89.695312 130.308594 88.957031 C 133.285156 86.003906 136.398438 82.984375 139.503906 80.039062 C 141.019531 78.527344 142.714844 77.222656 144.304688 75.875 C 145.917969 74.554688 147.5 73.257812 149.03125 72.007812 C 147.664062 73.433594 146.25 74.902344 144.808594 76.40625 C 143.375 77.917969 141.820312 79.351562 140.425781 80.976562 C 137.566406 84.148438 134.632812 87.316406 131.773438 90.34375 C 131.054688 91.09375 130.34375 91.84375 129.640625 92.582031 C 128.945312 93.324219 128.308594 94.105469 127.652344 94.84375 C 126.339844 96.328125 125.074219 97.765625 123.867188 99.132812 C 121.429688 101.851562 119.195312 104.265625 117.304688 106.230469 C 120.996094 108.058594 124.976562 108.144531 128.835938 106.863281 C 130.765625 106.222656 132.667969 105.238281 134.5 103.941406 C 136.34375 102.660156 138.046875 101 139.847656 99.25 C 143.382812 95.6875 146.425781 90.945312 148.941406 85.460938 C 151.582031 80.101562 153.546875 73.847656 154.546875 66.910156 C 147.71875 67.191406 141.144531 68.824219 135.28125 71.308594 C 129.542969 73.925781 124.675781 77.546875 120.890625 81.402344 C 118.960938 83.300781 117.519531 85.457031 116.34375 87.5625 C 115.179688 89.667969 114.351562 91.789062 113.898438 93.851562 C 112.996094 97.984375 113.609375 101.886719 116.019531 105.15625 " fill-opacity="1" fill-rule="evenodd"/></g><g clip-path="url(#f8ba3a3bdb)"><path fill="#263238" d="M 665.242188 130.777344 C 662.144531 129.621094 658.992188 127.714844 656.109375 125.089844 C 654.703125 123.746094 653.183594 122.371094 651.820312 120.773438 C 650.441406 119.1875 649.164062 117.421875 648.007812 115.480469 C 652.042969 113.550781 656.191406 112.511719 660.15625 112.257812 C 664.101562 112.019531 667.957031 112.484375 671.042969 113.761719 C 677.304688 116.25 681.59375 121.078125 680.824219 126.757812 C 677.648438 125.160156 672.84375 123.320312 667.84375 121.476562 C 665.324219 120.570312 662.738281 119.664062 660.164062 118.855469 C 657.519531 118.113281 654.917969 117.4375 652.480469 116.867188 C 654.804688 117.796875 657.339844 118.734375 659.898438 119.714844 C 662.417969 120.746094 664.953125 121.785156 667.410156 122.792969 C 669.925781 123.78125 672.347656 124.726562 674.542969 125.585938 C 675.664062 126.011719 676.726562 126.410156 677.714844 126.777344 C 678.691406 127.167969 679.589844 127.523438 680.402344 127.84375 C 677.265625 132.558594 671.5 133.015625 665.242188 130.777344 Z M 689.425781 169.195312 C 683.246094 165.5625 676.773438 159.082031 673 149.882812 C 677.789062 148.300781 682.371094 147.84375 686.71875 148.175781 C 691.046875 148.515625 695.050781 149.691406 698.402344 151.464844 C 701.820312 153.195312 704.304688 155.675781 705.835938 158.425781 C 707.371094 161.175781 707.894531 164.210938 707.078125 167.253906 C 703.761719 165.054688 698.980469 162.183594 693.839844 159.371094 C 688.535156 156.65625 682.726562 154.082031 677.683594 152.0625 C 680.035156 153.445312 682.59375 154.894531 685.226562 156.355469 C 686.554688 157.085938 687.886719 157.820312 689.210938 158.546875 C 690.554688 159.273438 691.894531 159.992188 693.132812 160.757812 C 698.171875 163.742188 702.996094 166.503906 706.5 168.363281 C 702.429688 172.957031 695.742188 172.699219 689.425781 169.195312 Z M 708.710938 212.355469 C 705.714844 209.894531 702.5 206.726562 699.988281 202.769531 C 698.707031 200.800781 697.570312 198.644531 696.597656 196.3125 C 695.570312 194.011719 694.574219 191.597656 693.859375 188.984375 C 699.207031 188.035156 704.398438 188.167969 709.140625 189.164062 C 713.78125 190.203125 717.855469 192.152344 721.175781 194.617188 C 722.835938 195.859375 724.292969 197.230469 725.503906 198.691406 C 726.109375 199.421875 726.652344 200.171875 727.136719 200.941406 C 727.597656 201.707031 727.941406 202.519531 728.242188 203.328125 C 729.429688 206.574219 729.484375 209.960938 728.082031 213.121094 C 726.472656 211.65625 724.503906 209.941406 722.300781 208.117188 C 721.195312 207.214844 720.039062 206.277344 718.84375 205.300781 C 717.640625 204.347656 716.285156 203.421875 714.960938 202.472656 C 712.292969 200.589844 709.519531 198.707031 706.785156 196.929688 C 704.019531 195.164062 701.417969 193.445312 698.679688 192.050781 C 701.1875 193.816406 703.550781 195.84375 706.171875 197.832031 C 708.804688 199.835938 711.460938 201.871094 714.023438 203.824219 C 716.703125 205.769531 718.996094 207.777344 721.253906 209.546875 C 723.488281 211.332031 725.53125 212.941406 727.257812 214.246094 C 722.0625 218.570312 714.894531 217.175781 708.710938 212.355469 Z M 721.839844 259.949219 C 720.449219 258.378906 718.871094 256.648438 717.578125 254.6875 C 716.25 252.738281 715.058594 250.589844 714.042969 248.269531 C 712.144531 243.589844 710.34375 238.394531 709.714844 232.5625 C 715.59375 232.386719 721.125 233.363281 726.027344 235.199219 C 728.453125 236.125 730.824219 237.234375 732.8125 238.566406 C 734.804688 239.890625 736.605469 241.386719 738.160156 242.992188 C 741.277344 246.207031 743.453125 249.878906 744.355469 253.53125 C 745.0625 257.226562 744.523438 260.894531 742.464844 264.0625 C 739.503906 260.367188 735.347656 255.335938 730.144531 250.425781 C 725.0625 245.480469 719.703125 240.476562 714.339844 236.597656 C 719.066406 241.195312 723.9375 246.625 728.875 251.71875 C 730.117188 252.996094 731.328125 254.253906 732.5 255.46875 C 733.667969 256.691406 734.699219 257.902344 735.753906 259.050781 C 737.828125 261.339844 739.742188 263.417969 741.363281 265.113281 C 735.050781 268.867188 727.613281 266.144531 721.839844 259.949219 Z M 727.535156 311.367188 C 724.863281 307.554688 722.574219 302.882812 721.246094 297.597656 C 720.898438 296.277344 720.628906 294.917969 720.390625 293.523438 C 720.082031 292.136719 719.828125 290.71875 719.636719 289.265625 C 719.257812 286.359375 719.125 283.324219 719.285156 280.167969 C 725.582031 280.96875 731.304688 282.933594 736.210938 285.726562 C 738.660156 287.125 740.902344 288.722656 742.910156 290.46875 C 744.886719 292.21875 746.480469 294.128906 747.878906 296.113281 C 750.636719 300.085938 752.296875 304.390625 752.621094 308.449219 C 752.800781 312.523438 751.515625 316.351562 748.78125 319.367188 C 747.546875 317.125 745.996094 314.480469 744.238281 311.628906 C 743.394531 310.199219 742.382812 308.726562 741.304688 307.222656 C 740.238281 305.738281 739.132812 304.210938 738.015625 302.65625 C 735.753906 299.578125 733.378906 296.480469 731 293.523438 C 728.5625 290.566406 725.917969 287.773438 723.507812 285.238281 C 724.539062 286.671875 725.601562 288.15625 726.691406 289.664062 C 727.78125 291.179688 728.96875 292.722656 729.984375 294.304688 C 732.148438 297.496094 734.332031 300.726562 736.441406 303.835938 C 740.917969 310.109375 744.503906 316.121094 747.410156 320.3125 C 740.03125 323.207031 732.585938 318.976562 727.535156 311.367188 Z M 724.527344 365.636719 C 722.59375 361.164062 720.914062 355.816406 720.386719 350.007812 C 720.003906 344.203125 719.886719 337.859375 721.382812 331.242188 C 727.921875 333.175781 733.648438 336.253906 738.355469 340.074219 C 740.699219 341.984375 742.84375 344.078125 744.609375 346.28125 C 746.316406 348.480469 747.746094 350.792969 748.875 353.148438 C 749.996094 355.5 750.820312 357.894531 751.3125 360.246094 C 751.558594 361.421875 751.730469 362.585938 751.808594 363.730469 C 751.832031 364.871094 751.773438 365.988281 751.632812 367.074219 C 751.058594 371.421875 749.128906 375.265625 745.71875 377.964844 C 744.785156 375.363281 743.582031 372.277344 742.1875 368.933594 C 740.792969 365.589844 739.269531 362 737.3125 358.328125 C 735.433594 354.671875 733.4375 350.96875 731.425781 347.417969 C 730.914062 346.53125 730.421875 345.652344 729.898438 344.785156 C 729.34375 343.917969 728.792969 343.0625 728.242188 342.210938 C 727.148438 340.523438 726.058594 338.894531 724.988281 337.34375 C 725.835938 339.039062 726.707031 340.792969 727.597656 342.582031 C 728.035156 343.476562 728.523438 344.390625 728.949219 345.300781 C 729.371094 346.21875 729.789062 347.140625 730.21875 348.066406 C 731.972656 351.824219 733.75 355.625 735.464844 359.289062 C 735.910156 360.21875 736.347656 361.140625 736.773438 362.050781 C 737.167969 362.964844 737.554688 363.863281 737.9375 364.75 C 738.714844 366.535156 739.464844 368.257812 740.179688 369.902344 C 741.628906 373.207031 742.976562 376.210938 744.136719 378.695312 C 735.84375 380.414062 728.652344 374.566406 724.527344 365.636719 Z M 718.195312 433.84375 C 715.136719 430.707031 713.027344 426.355469 711.664062 421.25 C 710.933594 418.679688 710.441406 415.933594 710.214844 413.066406 C 710.097656 411.632812 710.050781 410.167969 710.074219 408.675781 C 710.109375 407.191406 710.195312 405.675781 710.242188 404.113281 C 710.511719 397.875 712.277344 391.40625 714.652344 384.6875 C 717.941406 386.304688 720.976562 388.179688 723.726562 390.265625 C 726.488281 392.355469 728.964844 394.660156 731 397.082031 C 735.140625 401.933594 738.058594 407.390625 739.667969 412.808594 C 741.117188 418.179688 741.101562 423.464844 739.828125 427.980469 C 739.503906 429.101562 739.109375 430.1875 738.597656 431.199219 C 738.054688 432.199219 737.421875 433.136719 736.710938 434.003906 C 735.289062 435.738281 733.539062 437.1875 731.460938 438.261719 C 731.027344 435.355469 730.417969 431.894531 729.648438 428.132812 C 728.714844 424.316406 727.625 420.199219 726.425781 416.023438 C 725.820312 413.933594 725.195312 411.832031 724.542969 409.742188 C 723.792969 407.628906 723.027344 405.527344 722.246094 403.464844 C 720.691406 399.34375 719.089844 395.382812 717.5 391.769531 C 718.523438 395.589844 719.664062 399.703125 720.875 403.941406 C 721.453125 406.050781 722.148438 408.214844 722.671875 410.335938 C 723.203125 412.476562 723.734375 414.601562 724.253906 416.6875 C 725.285156 420.882812 726.433594 425.023438 727.304688 428.769531 C 728.132812 432.496094 728.914062 435.902344 729.625 438.726562 C 725.070312 438.828125 721.21875 436.964844 718.195312 433.84375 Z M 691.636719 490.898438 C 690.371094 488.953125 689.390625 486.71875 688.691406 484.285156 C 687.984375 481.851562 687.625 479.242188 687.347656 476.398438 C 687.113281 473.578125 687.160156 470.621094 687.511719 467.59375 C 687.6875 466.082031 687.9375 464.550781 688.269531 463.011719 C 688.558594 461.449219 688.859375 459.847656 689.277344 458.257812 C 690.09375 455.066406 691.234375 451.855469 692.726562 448.660156 C 694.078125 445.414062 695.699219 442.144531 697.738281 438.945312 C 703.976562 443.585938 708.890625 449.136719 712.421875 455.105469 C 715.886719 461.03125 717.71875 467.265625 718.300781 473.25 C 718.429688 474.734375 718.515625 476.226562 718.445312 477.644531 C 718.355469 479.058594 718.179688 480.4375 717.929688 481.777344 C 717.417969 484.449219 716.582031 486.949219 715.433594 489.171875 C 713.234375 493.675781 709.355469 496.828125 704.589844 498.242188 C 704.714844 495.113281 704.859375 491.410156 704.738281 487.273438 C 704.558594 483.101562 704.269531 478.585938 703.878906 473.988281 C 703.574219 469.4375 702.734375 464.597656 702 460.011719 C 701.222656 455.40625 700.433594 450.992188 699.277344 446.816406 C 699.820312 451.09375 700.058594 455.550781 700.460938 460.207031 C 700.667969 462.546875 700.871094 464.90625 701.066406 467.25 C 701.308594 469.628906 701.332031 471.902344 701.480469 474.21875 C 701.742188 478.890625 701.988281 483.390625 702.21875 487.480469 C 702.3125 491.546875 702.433594 495.273438 702.589844 498.378906 C 697.796875 497.535156 694.160156 494.785156 691.636719 490.898438 Z M 650.652344 528.726562 C 651.074219 525.804688 651.65625 522.679688 652.65625 519.617188 C 653.140625 518.074219 653.714844 516.53125 654.367188 514.996094 C 655.027344 513.46875 655.773438 511.9375 656.492188 510.34375 C 657.984375 507.195312 659.820312 504.09375 662.011719 501.085938 C 663.144531 499.605469 664.207031 498.039062 665.40625 496.535156 C 666.605469 495.023438 667.886719 493.535156 669.273438 492.085938 C 674.792969 498.199219 678.769531 505 681.195312 511.941406 C 683.449219 518.753906 684.15625 525.699219 683.496094 532.050781 C 682.691406 538.289062 680.40625 543.832031 677.128906 548.023438 C 673.695312 552.089844 669.117188 554.65625 663.890625 555.121094 C 664.679688 551.875 665.523438 547.972656 666.339844 543.699219 C 666.539062 542.625 666.757812 541.542969 666.933594 540.414062 C 667.09375 539.273438 667.25 538.109375 667.410156 536.929688 C 667.71875 534.578125 668.007812 532.160156 668.277344 529.722656 C 668.542969 527.28125 668.789062 524.8125 668.996094 522.355469 C 669.128906 519.835938 669.226562 517.320312 669.289062 514.839844 C 669.355469 512.359375 669.394531 509.921875 669.394531 507.546875 C 669.386719 506.367188 669.378906 505.195312 669.371094 504.042969 C 669.335938 502.878906 669.253906 501.710938 669.1875 500.582031 C 669.082031 501.699219 669.019531 502.875 668.878906 504.015625 C 668.742188 505.160156 668.605469 506.320312 668.46875 507.492188 C 668.199219 509.867188 667.925781 512.289062 667.648438 514.726562 C 667.359375 517.171875 667.164062 519.71875 666.796875 522.152344 C 666.449219 524.617188 666.09375 527.0625 665.746094 529.460938 C 664.523438 539.273438 662.722656 548.210938 661.796875 554.808594 C 652.28125 551.011719 648.945312 540.316406 650.652344 528.726562 Z M 598.644531 591.832031 C 598.25 589.273438 598.277344 586.5625 598.683594 583.777344 C 599.089844 580.996094 599.753906 577.976562 600.824219 575.039062 C 601.882812 572.085938 603.28125 569.128906 605.027344 566.242188 C 606.679688 563.246094 608.632812 560.277344 610.941406 557.457031 C 612.078125 556.027344 613.359375 554.695312 614.621094 553.285156 C 615.878906 551.867188 617.214844 550.484375 618.640625 549.148438 C 621.476562 546.449219 624.777344 544.050781 628.125 541.539062 C 630.324219 545.316406 632.117188 549.210938 633.4375 553.085938 C 634.730469 556.921875 635.582031 560.78125 636.027344 564.589844 C 636.480469 568.398438 636.523438 572.152344 636.203125 575.777344 C 635.902344 579.417969 635.035156 582.714844 633.964844 585.894531 C 632.859375 589.046875 631.445312 591.96875 629.769531 594.558594 C 628.046875 597.101562 625.984375 599.214844 623.777344 600.964844 C 621.558594 602.695312 619.152344 604.007812 616.617188 604.804688 C 614.054688 605.558594 611.296875 605.707031 608.519531 605.316406 C 609.320312 603.757812 610.171875 602.035156 611.0625 600.183594 C 611.953125 598.332031 612.773438 596.214844 613.660156 594.074219 C 615.386719 589.726562 617.253906 585.109375 618.863281 580.152344 C 620.433594 575.152344 621.917969 570.027344 623.230469 565.035156 C 624.445312 559.9375 625.40625 554.878906 626.203125 550.246094 C 625.46875 552.503906 624.710938 554.835938 623.9375 557.210938 C 623.554688 558.417969 623.167969 559.640625 622.777344 560.867188 L 622.191406 562.726562 L 621.542969 564.542969 C 619.796875 569.503906 618.027344 574.527344 616.324219 579.363281 C 614.4375 584.222656 612.625 588.898438 610.976562 593.144531 C 610.558594 594.234375 610.152344 595.292969 609.757812 596.320312 C 609.339844 597.324219 608.9375 598.300781 608.546875 599.238281 C 607.769531 601.140625 607.046875 602.902344 606.394531 604.496094 C 601.875 601.425781 599.433594 596.945312 598.644531 591.832031 Z M 531.707031 628.113281 C 531.917969 625.382812 532.644531 622.699219 533.695312 619.855469 C 534.746094 617.015625 536.195312 614.183594 537.992188 611.441406 C 538.894531 610.066406 539.878906 608.714844 540.960938 607.402344 C 541.496094 606.742188 542.054688 606.089844 542.632812 605.449219 C 543.195312 604.765625 543.769531 604.089844 544.371094 603.425781 C 546.773438 600.765625 549.5 598.253906 552.539062 595.964844 C 554.085938 594.863281 555.589844 593.597656 557.230469 592.492188 C 558.851562 591.363281 560.554688 590.292969 562.339844 589.292969 C 565.964844 587.378906 569.679688 585.355469 573.789062 583.742188 C 575.164062 588.128906 576.070312 592.496094 576.53125 596.800781 C 576.988281 601.101562 577.019531 605.371094 576.542969 609.3125 C 576.085938 613.300781 575.222656 617.136719 574.007812 620.75 C 572.796875 624.363281 571.265625 627.789062 569.324219 630.671875 C 561.792969 642.605469 549.472656 648.792969 538.464844 644.371094 C 539.667969 642.953125 541.007812 641.503906 542.328125 639.71875 C 543.660156 637.964844 545.054688 636.078125 546.484375 634.097656 C 549.332031 630.105469 552.394531 625.886719 555.179688 621.085938 C 556.589844 618.730469 557.992188 616.339844 559.363281 613.949219 C 560.730469 611.5625 562.074219 609.179688 563.269531 606.652344 C 565.707031 601.683594 567.949219 596.855469 569.839844 592.289062 C 567.242188 596.574219 564.476562 601.140625 561.679688 605.757812 L 560.609375 607.535156 L 559.496094 609.246094 C 558.746094 610.394531 557.996094 611.546875 557.253906 612.691406 C 555.742188 615.023438 554.242188 617.347656 552.765625 619.621094 C 552.019531 620.761719 551.300781 621.941406 550.539062 623.03125 C 549.78125 624.121094 549.027344 625.195312 548.289062 626.25 C 546.796875 628.402344 545.347656 630.480469 543.972656 632.460938 C 542.585938 634.476562 541.261719 636.394531 540.03125 638.183594 C 538.761719 639.925781 537.585938 641.542969 536.523438 643.003906 C 532.644531 638.730469 531.253906 633.53125 531.707031 628.113281 Z M 452.300781 648.335938 C 453.25 645.632812 454.683594 642.992188 456.515625 640.484375 C 458.351562 637.984375 460.542969 635.375 463.085938 633.070312 C 465.625 630.71875 468.511719 628.625 471.65625 626.644531 C 474.773438 624.546875 478.179688 622.6875 481.84375 621.136719 C 482.761719 620.742188 483.691406 620.371094 484.644531 620.023438 C 485.582031 619.632812 486.527344 619.234375 487.496094 618.871094 C 489.425781 618.140625 491.425781 617.484375 493.488281 616.921875 C 495.539062 616.335938 497.691406 615.9375 499.84375 615.460938 C 502 614.957031 504.21875 614.550781 506.5 614.25 C 506.789062 619.074219 506.597656 623.769531 505.972656 628.277344 C 505.65625 630.527344 505.238281 632.75 504.707031 634.886719 C 504.164062 636.984375 503.515625 639.023438 502.777344 641 C 501.289062 644.953125 499.421875 648.652344 497.257812 652.03125 C 496.171875 653.710938 495.023438 655.355469 493.789062 656.832031 C 492.550781 658.273438 491.246094 659.625 489.894531 660.882812 C 487.1875 663.398438 484.28125 665.519531 481.289062 667.191406 C 479.796875 668.058594 478.261719 668.691406 476.71875 669.203125 C 475.175781 669.722656 473.625 670.117188 472.085938 670.390625 C 469.007812 670.929688 465.960938 670.953125 463.058594 670.410156 C 460.152344 669.808594 457.375 668.503906 454.871094 666.667969 C 456.464844 665.570312 458.199219 664.335938 460.035156 662.996094 C 461.871094 661.660156 463.773438 660.019531 465.753906 658.390625 C 467.726562 656.738281 469.761719 654.996094 471.824219 653.191406 C 473.886719 651.390625 475.976562 649.550781 478.019531 647.460938 C 482.113281 643.351562 486.207031 639.21875 489.992188 634.890625 C 493.746094 630.453125 497.242188 626.066406 500.335938 621.945312 C 496.65625 625.527344 492.699219 629.472656 488.613281 633.578125 C 484.378906 637.519531 480.089844 641.507812 475.960938 645.351562 C 467.460938 652.8125 459.167969 659.984375 453.238281 664.757812 C 450.433594 659.398438 450.40625 653.738281 452.300781 648.335938 Z M 707.199219 133.105469 C 708.007812 131.574219 708.566406 129.800781 708.886719 127.832031 C 709.164062 125.882812 709.132812 123.78125 708.878906 121.53125 C 708.332031 117.042969 706.761719 111.984375 704.121094 106.929688 C 701.28125 102.019531 697.398438 97.082031 692.578125 92.683594 C 686.480469 102.582031 684.558594 113.445312 685.757812 121.996094 C 686.226562 126.382812 687.527344 130.210938 689.617188 133.132812 C 690.664062 134.597656 691.910156 135.835938 693.347656 136.800781 C 694.792969 137.769531 696.300781 138.558594 698.082031 138.976562 C 697.976562 137.820312 697.867188 136.546875 697.746094 135.171875 C 697.589844 133.820312 697.421875 132.371094 697.253906 130.839844 C 696.933594 127.746094 696.578125 124.347656 696.21875 120.816406 C 695.644531 113.597656 694.5 106.097656 693.796875 99.21875 C 694.652344 102.621094 695.484375 106.226562 696.246094 109.847656 L 696.804688 112.566406 C 696.976562 113.476562 697.101562 114.421875 697.242188 115.335938 C 697.5 117.171875 697.761719 119.003906 698.015625 120.792969 C 698.945312 127.945312 699.632812 134.34375 699.574219 139.007812 C 703.023438 138.25 705.59375 136.164062 707.199219 133.105469 Z M 734.027344 178.390625 C 736.265625 175.285156 737.492188 170.964844 737.664062 165.84375 C 737.746094 163.28125 737.566406 160.53125 737.105469 157.644531 C 736.992188 156.921875 736.863281 156.195312 736.707031 155.460938 C 736.53125 154.734375 736.328125 154.007812 736.113281 153.277344 C 735.675781 151.820312 735.167969 150.335938 734.589844 148.835938 C 733.433594 145.84375 731.988281 142.800781 730.257812 139.785156 C 729.824219 139.035156 729.375 138.28125 728.90625 137.539062 C 728.410156 136.808594 727.878906 136.085938 727.339844 135.367188 C 726.253906 133.933594 725.101562 132.519531 723.875 131.132812 C 719.789062 136.140625 716.945312 141.546875 714.980469 146.953125 C 712.949219 152.40625 711.925781 157.785156 711.902344 162.65625 C 711.867188 165.101562 712.1875 167.363281 712.5625 169.566406 C 712.953125 171.757812 713.59375 173.777344 714.492188 175.578125 C 716.289062 179.183594 719.128906 181.914062 723 183.414062 C 723.078125 178.3125 723.414062 171.023438 723.855469 162.929688 C 724.035156 154.816406 724.230469 146.128906 724.402344 138.492188 C 724.925781 142.390625 725.164062 146.628906 725.425781 150.792969 C 725.550781 152.886719 725.652344 154.976562 725.734375 157.046875 C 725.796875 159.113281 725.902344 161.128906 725.824219 163.179688 C 725.632812 171.332031 725.242188 178.585938 724.582031 183.660156 C 728.519531 183.398438 731.722656 181.53125 734.027344 178.390625 Z M 760.734375 216.460938 C 761.238281 213.664062 761.609375 210.554688 761.460938 207.339844 C 761.304688 204.121094 760.859375 200.722656 760.105469 197.210938 C 759.726562 195.460938 759.273438 193.679688 758.738281 191.886719 C 758.476562 190.988281 758.1875 190.089844 757.882812 189.183594 C 757.550781 188.289062 757.171875 187.40625 756.78125 186.519531 C 755.226562 182.964844 753.347656 179.398438 751.144531 175.917969 C 740.585938 185.753906 734.953125 197.953125 733 208.683594 C 731.480469 219.304688 733.636719 228.664062 741.671875 233.226562 C 742.152344 230.449219 742.804688 227.074219 743.566406 223.289062 C 743.960938 221.386719 744.371094 219.390625 744.796875 217.332031 C 745.011719 216.292969 745.238281 215.234375 745.460938 214.171875 C 745.640625 213.109375 745.820312 212.035156 746.003906 210.953125 C 747.4375 202.289062 749.371094 192.609375 750.484375 184.191406 C 750.464844 186.382812 750.410156 188.628906 750.332031 190.898438 C 750.25 193.167969 749.976562 195.535156 749.773438 197.855469 C 749.328125 202.515625 748.777344 207.152344 748.179688 211.546875 C 747.925781 213.734375 747.433594 215.925781 747.046875 218.003906 C 746.632812 220.085938 746.214844 222.085938 745.800781 223.96875 C 744.980469 227.746094 744.167969 231.074219 743.425781 233.78125 C 752.265625 234.558594 758.621094 227.730469 760.734375 216.460938 Z M 776.421875 273.015625 C 780.753906 261.195312 780.207031 243.832031 772.832031 227.148438 C 766.3125 231.605469 760.945312 236.992188 756.789062 242.605469 C 754.707031 245.414062 752.929688 248.285156 751.476562 251.152344 C 749.960938 254.027344 748.625 256.929688 747.703125 259.757812 C 746.765625 262.585938 746.152344 265.351562 745.898438 268.011719 C 745.773438 269.339844 745.738281 270.640625 745.792969 271.910156 C 745.785156 273.1875 745.847656 274.433594 746.023438 275.640625 C 746.699219 280.46875 748.902344 284.675781 752.804688 287.859375 C 753.828125 284.933594 755.144531 281.398438 756.648438 277.429688 C 757.410156 275.429688 758.210938 273.335938 759.039062 271.175781 C 759.910156 268.992188 760.570312 266.765625 761.382812 264.460938 C 762.992188 259.792969 764.652344 254.960938 766.289062 250.195312 C 766.726562 248.980469 767.113281 247.777344 767.460938 246.585938 C 767.828125 245.390625 768.191406 244.199219 768.550781 243.023438 C 769.292969 240.644531 770.011719 238.308594 770.710938 236.058594 C 770.304688 238.445312 769.859375 240.894531 769.382812 243.363281 C 768.902344 245.832031 768.4375 248.308594 767.734375 250.824219 C 766.425781 255.835938 765.027344 260.800781 763.605469 265.484375 C 763.246094 266.648438 762.890625 267.804688 762.539062 268.941406 C 762.164062 270.078125 761.726562 271.203125 761.328125 272.300781 C 760.511719 274.496094 759.710938 276.597656 758.925781 278.574219 C 757.371094 282.527344 755.898438 286 754.621094 288.800781 C 764.0625 291.210938 772.132812 284.941406 776.421875 273.015625 Z M 771.046875 347.375 C 775.566406 345.089844 779.664062 340.707031 783.019531 334.675781 C 786.539062 328.65625 788.53125 320.980469 789.539062 312.332031 C 789.746094 310.171875 790.019531 307.949219 789.953125 305.6875 C 789.917969 303.425781 789.796875 301.117188 789.585938 298.773438 C 789.371094 296.433594 789.070312 294.058594 788.671875 291.667969 C 788.476562 290.472656 788.253906 289.269531 788.011719 288.066406 C 787.878906 287.46875 787.75 286.867188 787.617188 286.261719 C 787.445312 285.664062 787.277344 285.0625 787.101562 284.460938 C 783.328125 286.304688 779.695312 288.464844 776.359375 290.820312 C 773.027344 293.179688 769.988281 295.734375 767.257812 298.40625 C 764.53125 301.074219 762.117188 303.863281 760.050781 306.691406 C 759.53125 307.398438 759.035156 308.109375 758.558594 308.824219 C 758.050781 309.539062 757.554688 310.257812 757.09375 310.972656 C 756.15625 312.410156 755.304688 313.851562 754.542969 315.289062 C 753.03125 318.164062 751.882812 321.03125 751.140625 323.84375 C 750.765625 325.25 750.492188 326.640625 750.328125 328.011719 C 750.128906 329.382812 749.953125 330.738281 749.933594 332.0625 C 749.8125 337.371094 751.453125 342.289062 755.054688 346.425781 C 756.695312 343.460938 758.710938 339.890625 761.03125 335.886719 C 762.199219 333.875 763.429688 331.761719 764.699219 329.582031 C 765.988281 327.386719 767.117188 325.105469 768.398438 322.769531 C 770.949219 318.019531 773.59375 313.097656 776.203125 308.246094 C 778.667969 303.265625 781.097656 298.351562 783.378906 293.753906 C 781.628906 298.785156 779.808594 304.015625 777.636719 309.183594 C 775.351562 314.363281 772.964844 319.472656 770.605469 324.269531 C 769.4375 326.667969 768.273438 328.988281 766.96875 331.207031 C 765.703125 333.425781 764.472656 335.539062 763.285156 337.527344 C 760.882812 341.503906 758.796875 344.976562 756.789062 347.746094 C 761.539062 349.871094 766.425781 349.664062 771.046875 347.375 Z M 763.589844 411.628906 C 766.234375 410.84375 768.886719 409.484375 771.492188 407.59375 C 772.789062 406.644531 774.082031 405.566406 775.351562 404.359375 C 776.605469 403.152344 777.742188 401.800781 778.890625 400.335938 C 783.417969 394.472656 787.644531 386.695312 789.953125 377.523438 C 792.613281 368.40625 793.300781 357.925781 792.375 347.117188 C 783.535156 349.742188 775.460938 353.816406 768.75 358.554688 C 767.0625 359.742188 765.460938 360.972656 763.941406 362.238281 C 762.417969 363.503906 761 364.808594 759.550781 366.125 C 756.714844 368.761719 754.222656 371.507812 752.136719 374.308594 C 751.09375 375.707031 750.144531 377.117188 749.300781 378.539062 C 748.878906 379.25 748.484375 379.960938 748.113281 380.675781 C 747.707031 381.382812 747.328125 382.089844 746.972656 382.800781 C 745.5625 385.640625 744.589844 388.488281 744.09375 391.316406 C 743.222656 396.988281 743.757812 402.464844 746.738281 407.542969 C 747.941406 406.128906 749.273438 404.570312 750.699219 402.894531 C 752.128906 401.214844 753.761719 399.425781 755.28125 397.488281 C 758.464844 393.578125 761.960938 389.285156 765.578125 384.835938 C 772.605469 375.757812 780.34375 365.628906 786.742188 356.417969 C 784.027344 361.527344 781.203125 366.820312 777.777344 371.960938 C 776.125 374.535156 774.445312 377.085938 772.769531 379.578125 C 771.105469 382.074219 769.4375 384.515625 767.609375 386.839844 C 764.046875 391.511719 760.589844 395.847656 757.414062 399.660156 C 754.0625 403.4375 750.957031 406.6875 748.375 409.277344 C 753.085938 412.480469 758.308594 413.207031 763.589844 411.628906 Z M 743.433594 477.191406 C 746.394531 476.894531 749.488281 475.992188 752.648438 474.515625 C 755.769531 473.019531 758.804688 470.886719 761.863281 468.242188 C 763.386719 466.914062 764.894531 465.457031 766.386719 463.867188 C 767.851562 462.273438 769.398438 460.589844 770.691406 458.703125 C 773.371094 454.972656 775.90625 450.757812 778.195312 446.148438 C 779.394531 443.859375 780.316406 441.402344 781.222656 438.882812 C 782.117188 436.359375 782.941406 433.75 783.683594 431.066406 C 785.261719 425.730469 786.027344 419.984375 786.484375 414.101562 C 781.539062 414.671875 776.78125 415.683594 772.277344 417.015625 C 767.757812 418.351562 763.5625 420.023438 759.429688 421.878906 C 755.347656 423.746094 751.566406 425.851562 748.144531 428.128906 C 746.4375 429.273438 744.8125 430.457031 743.289062 431.679688 C 741.753906 432.898438 740.199219 434.117188 738.808594 435.390625 C 733.164062 440.457031 729.316406 446.089844 726.945312 451.789062 C 725.820312 454.65625 725.21875 457.597656 725.175781 460.582031 C 725.117188 463.550781 725.4375 466.488281 726.496094 469.46875 C 728.0625 468.222656 729.789062 466.851562 731.648438 465.375 C 733.5 463.886719 735.394531 462.238281 737.464844 460.523438 C 739.546875 458.792969 741.722656 456.980469 743.980469 455.105469 C 745.125 454.15625 746.28125 453.191406 747.457031 452.21875 C 748.585938 451.210938 749.726562 450.191406 750.878906 449.164062 C 753.210938 447.078125 755.589844 444.957031 757.976562 442.824219 C 760.382812 440.664062 762.890625 438.5 765.15625 436.246094 C 769.890625 431.710938 774.550781 427.234375 778.910156 423.042969 C 775.035156 427.957031 770.730469 432.976562 766.410156 437.871094 C 761.960938 442.730469 757.171875 447.371094 752.691406 451.707031 C 743.34375 460.25 734.53125 467.3125 727.816406 471.644531 C 732.128906 475.960938 737.503906 477.792969 743.433594 477.191406 Z M 708.890625 541.476562 C 715.195312 542.074219 722.761719 540.3125 730.183594 535.894531 C 732.058594 534.808594 733.957031 533.582031 735.855469 532.207031 C 737.734375 530.824219 739.71875 529.367188 741.480469 527.640625 C 745.089844 524.246094 748.644531 520.308594 752.03125 515.90625 C 755.3125 511.445312 758.226562 506.414062 760.9375 501.058594 C 762.332031 498.398438 763.421875 495.53125 764.484375 492.617188 C 765.539062 489.703125 766.503906 486.703125 767.355469 483.644531 C 756.679688 482.917969 746.457031 484.128906 737.324219 486.527344 C 732.632812 487.671875 728.210938 489.125 724.128906 490.820312 C 720.019531 492.507812 716.394531 494.519531 712.847656 496.574219 C 705.863281 500.738281 700.628906 505.84375 696.957031 511.332031 C 695.179688 514.113281 693.945312 517.089844 693.261719 520.207031 C 692.472656 523.25 692.273438 526.460938 692.734375 529.8125 C 696.472656 527.808594 701.210938 525.539062 706.164062 522.714844 C 708.710938 521.328125 711.382812 519.863281 714.140625 518.359375 C 715.535156 517.59375 716.957031 516.816406 718.394531 516.035156 C 719.789062 515.207031 721.207031 514.371094 722.632812 513.527344 C 734.21875 506.824219 746.570312 498.941406 757.464844 491.582031 C 756.214844 492.703125 755.003906 493.855469 753.664062 494.957031 C 752.328125 496.046875 750.976562 497.144531 749.605469 498.253906 C 746.871094 500.453125 744.082031 502.632812 741.285156 504.773438 C 738.546875 506.941406 735.535156 508.933594 732.632812 510.902344 C 729.722656 512.867188 726.832031 514.765625 724.007812 516.578125 C 723.300781 517.027344 722.601562 517.476562 721.902344 517.921875 C 721.175781 518.34375 720.453125 518.761719 719.738281 519.179688 C 718.300781 519.992188 716.886719 520.796875 715.5 521.589844 C 712.71875 523.148438 710.039062 524.609375 707.5 525.953125 C 704.992188 527.328125 702.472656 528.488281 700.140625 529.539062 C 697.8125 530.59375 695.652344 531.527344 693.703125 532.339844 C 697.316406 537.800781 702.558594 540.867188 708.890625 541.476562 Z M 658.820312 601.261719 C 665.230469 603.238281 673.375 602.890625 682.3125 600.078125 C 686.679688 598.574219 691.246094 596.46875 695.890625 593.789062 C 697.046875 593.121094 698.222656 592.421875 699.378906 591.667969 C 700.5 590.890625 701.628906 590.074219 702.757812 589.226562 C 705.011719 587.527344 707.261719 585.6875 709.488281 583.71875 C 714.046875 579.847656 718.117188 575.117188 722.078125 570.03125 C 726.121094 565 729.46875 559.171875 732.566406 553.089844 C 727.078125 551.601562 721.589844 550.648438 716.234375 550.144531 C 710.863281 549.625 705.699219 549.617188 700.527344 549.800781 C 690.238281 550.234375 681.042969 552.289062 672.820312 555.109375 C 656.792969 561.132812 645.597656 570.980469 644.621094 585.507812 C 648.925781 584.210938 654.210938 582.71875 660.203125 581.050781 C 666.09375 579.289062 672.527344 577.179688 679.429688 575.019531 C 686.148438 572.691406 693.1875 570.152344 700.253906 567.574219 C 707.105469 564.816406 714.085938 562.085938 720.597656 559.398438 C 717.519531 561.234375 714.191406 562.957031 710.902344 564.714844 C 707.574219 566.449219 704.25 568.199219 700.832031 569.820312 C 697.347656 571.390625 693.859375 572.914062 690.414062 574.371094 C 686.949219 575.808594 683.621094 577.277344 680.140625 578.445312 C 676.710938 579.664062 673.367188 580.804688 670.160156 581.863281 C 668.554688 582.378906 666.980469 582.890625 665.433594 583.386719 C 663.898438 583.882812 662.3125 584.261719 660.820312 584.671875 C 654.789062 586.257812 649.453125 587.527344 645.058594 588.394531 C 647.527344 594.820312 652.359375 599.25 658.820312 601.261719 Z M 592.40625 652.117188 C 595.519531 653.925781 599.207031 655.226562 603.390625 655.988281 C 607.601562 656.808594 612.160156 656.867188 617.09375 656.367188 C 619.5625 656.117188 622.121094 655.726562 624.753906 655.195312 C 626.070312 654.921875 627.402344 654.621094 628.757812 654.28125 C 630.089844 653.917969 631.414062 653.476562 632.761719 653.019531 C 635.453125 652.101562 638.203125 651.035156 640.976562 649.816406 C 642.363281 649.210938 643.765625 648.570312 645.164062 647.890625 C 645.867188 647.542969 646.5625 647.191406 647.273438 646.839844 C 647.953125 646.449219 648.636719 646.058594 649.324219 645.664062 C 652.0625 644.050781 654.816406 642.304688 657.546875 640.410156 C 660.269531 638.5 663.0625 636.546875 665.617188 634.21875 C 668.207031 631.941406 670.773438 629.53125 673.269531 626.992188 C 674.515625 625.722656 675.757812 624.425781 676.972656 623.09375 C 678.140625 621.710938 679.28125 620.292969 680.410156 618.847656 C 675.03125 616.089844 669.664062 614.019531 664.121094 612.207031 C 658.617188 610.445312 653.140625 609.15625 647.816406 608.304688 C 645.15625 607.878906 642.527344 607.566406 639.957031 607.355469 C 637.355469 607.113281 634.75 606.914062 632.238281 606.851562 C 627.195312 606.710938 622.390625 606.980469 617.917969 607.65625 C 613.328125 608.183594 609.058594 609.105469 605.183594 610.449219 C 603.226562 611.097656 601.4375 611.941406 599.640625 612.722656 C 597.847656 613.523438 596.167969 614.429688 594.59375 615.449219 C 591.441406 617.457031 588.796875 619.988281 586.570312 622.800781 C 584.316406 625.566406 582.585938 628.789062 581.453125 632.464844 C 583.871094 632.347656 586.539062 632.214844 589.414062 632.078125 C 590.855469 632.003906 592.382812 631.96875 593.917969 631.871094 C 595.453125 631.75 597.03125 631.636719 598.652344 631.511719 C 605.128906 630.984375 612.527344 630.632812 620.007812 629.683594 C 623.828125 629.253906 627.714844 628.816406 631.621094 628.382812 C 635.554688 627.90625 639.421875 627.25 643.375 626.675781 C 647.300781 626.070312 651.292969 625.523438 655.148438 624.851562 C 659.011719 624.136719 662.792969 623.433594 666.453125 622.757812 C 662.792969 623.949219 659.035156 625.125 655.238281 626.253906 C 651.351562 627.28125 647.394531 628.234375 643.464844 629.15625 C 635.675781 631.101562 627.566406 632.332031 619.992188 633.457031 C 618.085938 633.71875 616.253906 634.035156 614.367188 634.203125 C 612.492188 634.371094 610.648438 634.539062 608.828125 634.707031 C 605.210938 635.011719 601.75 635.261719 598.488281 635.457031 C 595.25 635.707031 592.058594 635.648438 589.167969 635.660156 C 586.269531 635.652344 583.605469 635.601562 581.210938 635.515625 C 582.292969 642.863281 586.179688 648.507812 592.40625 652.117188 Z M 509.933594 688.855469 C 515.398438 694.113281 523.90625 698.117188 534.359375 699.441406 C 539.589844 700.144531 545.410156 700.519531 551.4375 699.871094 C 554.464844 699.597656 557.589844 699.183594 560.785156 698.628906 C 562.378906 698.347656 564 698.039062 565.621094 697.683594 C 567.222656 697.265625 568.84375 696.8125 570.472656 696.324219 C 576.960938 694.328125 583.753906 691.980469 590.242188 688.441406 C 593.515625 686.738281 596.785156 684.882812 600.023438 682.886719 C 603.242188 680.851562 606.324219 678.488281 609.40625 676.085938 C 604.511719 671.988281 599.375 668.445312 594.15625 665.40625 C 588.957031 662.390625 583.535156 659.625 578.238281 657.46875 C 575.582031 656.375 572.9375 655.402344 570.324219 654.550781 C 567.710938 653.699219 565.128906 652.984375 562.519531 652.246094 C 557.332031 650.84375 552.300781 649.921875 547.515625 649.492188 C 545.136719 649.320312 542.746094 649.085938 540.441406 649.03125 C 538.128906 648.972656 535.894531 649.039062 533.722656 649.234375 C 531.558594 649.429688 529.46875 649.757812 527.453125 650.21875 C 525.421875 650.601562 523.453125 651.089844 521.585938 651.734375 C 517.839844 653.003906 514.460938 654.871094 511.476562 657.257812 C 508.457031 659.511719 505.855469 662.363281 503.753906 665.839844 C 508.746094 666.761719 514.898438 668.199219 521.695312 669.242188 C 525.152344 669.828125 528.773438 670.441406 532.523438 671.078125 C 534.425781 671.425781 536.332031 671.691406 538.265625 671.929688 C 540.222656 672.183594 542.195312 672.441406 544.191406 672.699219 C 548.191406 673.203125 552.347656 673.789062 556.519531 674.238281 C 560.710938 674.609375 564.917969 674.980469 569.09375 675.347656 C 571.226562 675.53125 573.347656 675.710938 575.453125 675.894531 C 577.574219 676.082031 579.625 676.128906 581.707031 676.25 C 585.894531 676.460938 590 676.664062 593.96875 676.863281 C 585.753906 677.507812 577.246094 678.125 568.554688 677.921875 C 564.238281 677.867188 559.976562 677.851562 555.730469 677.613281 C 551.457031 677.320312 547.257812 676.976562 543.195312 676.589844 C 541.175781 676.386719 539.175781 676.1875 537.195312 675.988281 C 535.226562 675.742188 533.261719 675.421875 531.359375 675.128906 C 527.546875 674.53125 523.910156 673.910156 520.492188 673.285156 C 517.089844 672.710938 513.832031 671.90625 510.84375 671.152344 C 507.859375 670.402344 505.136719 669.667969 502.699219 668.964844 C 501.910156 676.773438 504.445312 683.566406 509.933594 688.855469 Z M 413.34375 705 C 415.429688 708.429688 418.363281 711.664062 422.082031 714.632812 C 423.945312 716.121094 426 717.539062 428.238281 718.878906 C 430.476562 720.25 432.890625 721.316406 435.480469 722.40625 C 438.070312 723.46875 440.828125 724.4375 443.738281 725.304688 C 445.191406 725.734375 446.6875 726.144531 448.21875 726.519531 C 448.984375 726.703125 449.761719 726.882812 450.539062 727.070312 C 451.320312 727.203125 452.109375 727.335938 452.902344 727.472656 C 456.085938 727.984375 459.40625 728.375 462.839844 728.636719 C 464.554688 728.769531 466.300781 728.867188 468.066406 728.9375 C 469.839844 729.011719 471.636719 729.050781 473.433594 728.9375 C 487.886719 728.429688 503.773438 725.34375 518.976562 718.429688 C 515.027344 712.972656 510.6875 708.035156 506.128906 703.574219 C 501.539062 698.980469 496.738281 694.871094 491.867188 691.261719 C 489.4375 689.460938 486.984375 687.78125 484.53125 686.234375 C 482.085938 684.71875 479.589844 683.105469 477.125 681.746094 C 472.191406 678.960938 467.300781 676.738281 462.515625 675.019531 C 457.699219 673.113281 453 671.777344 448.46875 671.054688 C 447.335938 670.871094 446.210938 670.730469 445.101562 670.625 C 443.992188 670.503906 442.882812 670.355469 441.789062 670.285156 C 439.601562 670.125 437.460938 670.125 435.375 670.289062 C 427.042969 671.136719 419.5 673.828125 413.28125 679.882812 C 415.726562 681.058594 418.421875 682.347656 421.320312 683.742188 C 422.789062 684.457031 424.308594 685.199219 425.871094 685.964844 C 426.660156 686.34375 427.457031 686.734375 428.265625 687.128906 C 429.078125 687.488281 429.902344 687.855469 430.734375 688.226562 C 434.113281 689.730469 437.65625 691.304688 441.3125 692.933594 C 443.179688 693.761719 445.070312 694.601562 446.988281 695.453125 C 448.917969 696.226562 450.875 697.007812 452.847656 697.796875 C 456.871094 699.390625 460.96875 701.007812 465.085938 702.632812 C 467.175781 703.488281 469.261719 704.179688 471.367188 704.921875 C 473.484375 705.65625 475.601562 706.390625 477.710938 707.125 C 479.847656 707.863281 481.976562 708.597656 484.089844 709.328125 C 486.21875 710.058594 488.351562 710.816406 490.445312 711.421875 C 494.695312 712.714844 498.863281 713.984375 502.890625 715.207031 C 498.574219 714.492188 494.179688 713.703125 489.769531 712.847656 C 485.339844 711.914062 480.863281 710.738281 476.445312 709.605469 C 467.628906 707.472656 458.882812 704.355469 450.769531 701.503906 C 449.761719 701.136719 448.753906 700.773438 447.753906 700.414062 C 446.753906 700.003906 445.765625 699.59375 444.78125 699.1875 C 442.839844 698.367188 440.921875 697.558594 439.03125 696.757812 C 435.289062 695.148438 431.734375 693.558594 428.410156 692.023438 C 421.738281 688.640625 415.972656 685.476562 411.367188 682.765625 C 408.4375 690.550781 409.171875 698.152344 413.34375 705 Z M 678.863281 93.851562 C 678.414062 91.789062 677.585938 89.671875 676.417969 87.558594 C 675.246094 85.457031 673.800781 83.300781 671.875 81.402344 C 668.085938 77.550781 663.21875 73.925781 657.484375 71.308594 C 651.617188 68.820312 645.042969 67.191406 638.222656 66.910156 C 639.21875 73.847656 641.1875 80.105469 643.828125 85.457031 C 646.335938 90.941406 649.382812 95.683594 652.917969 99.246094 C 654.71875 101 656.425781 102.660156 658.261719 103.945312 C 660.097656 105.238281 662 106.21875 663.929688 106.863281 C 667.785156 108.144531 671.769531 108.054688 675.464844 106.230469 C 673.566406 104.269531 671.335938 101.851562 668.898438 99.128906 C 667.6875 97.761719 666.421875 96.328125 665.117188 94.84375 C 664.453125 94.105469 663.820312 93.320312 663.121094 92.582031 C 662.421875 91.84375 661.710938 91.097656 660.996094 90.34375 C 658.132812 87.316406 655.199219 84.148438 652.339844 80.976562 C 650.949219 79.351562 649.386719 77.917969 647.957031 76.40625 C 646.511719 74.902344 645.101562 73.429688 643.734375 72.003906 C 645.265625 73.257812 646.847656 74.554688 648.464844 75.871094 C 650.046875 77.222656 651.746094 78.527344 653.257812 80.039062 C 656.367188 82.980469 659.480469 86.007812 662.457031 88.957031 C 663.199219 89.695312 663.933594 90.425781 664.660156 91.152344 C 665.378906 91.886719 666.023438 92.660156 666.695312 93.398438 C 668.007812 94.898438 669.277344 96.34375 670.488281 97.722656 C 672.898438 100.5 675.03125 103.035156 676.746094 105.15625 C 679.15625 101.886719 679.769531 97.984375 678.863281 93.851562 " fill-opacity="1" fill-rule="evenodd"/></g><g clip-path="url(#7bdb39ee98)"><path fill="#8899a6" d="M 584.207031 203.371094 L 552.179688 235.410156 C 552.179688 235.410156 530.816406 246.085938 509.464844 224.722656 C 488.101562 203.371094 498.777344 182.007812 498.777344 182.007812 L 530.816406 149.96875 C 541.503906 139.292969 528.667969 129.507812 519.03125 129.507812 C 471.714844 129.507812 433.367188 167.851562 433.367188 215.15625 C 433.367188 221.804688 434.207031 228.25 435.632812 234.464844 L 363.226562 306.871094 L 427.292969 370.9375 L 499.699219 298.542969 C 505.925781 299.96875 512.363281 300.808594 519.019531 300.808594 C 566.324219 300.808594 604.671875 262.464844 604.671875 215.15625 C 604.683594 205.464844 594.882812 192.695312 584.207031 203.371094 Z M 361.964844 308.960938 L 219.59375 451.324219 C 202.132812 468.796875 202.132812 497.121094 219.59375 514.59375 C 237.078125 532.058594 265.394531 532.058594 282.867188 514.59375 L 425.214844 372.234375 Z M 251.503906 501.382812 C 241.9375 501.382812 234.195312 493.628906 234.195312 484.074219 C 234.195312 474.519531 241.949219 466.753906 251.503906 466.753906 C 261.070312 466.753906 268.816406 474.507812 268.816406 484.074219 C 268.816406 493.628906 261.070312 501.382812 251.503906 501.382812 Z M 251.503906 501.382812 " fill-opacity="1" fill-rule="nonzero"/></g><path fill="#f4900c" d="M 544.296875 518.214844 C 557.914062 531.835938 579.59375 532.476562 592.429688 519.628906 C 605.277344 506.78125 604.636719 485.113281 591.015625 471.496094 L 319.273438 199.75 C 305.644531 186.121094 283.988281 185.488281 271.140625 198.339844 C 258.292969 211.1875 258.933594 232.851562 272.554688 246.472656 Z M 544.296875 518.214844 " fill-opacity="1" fill-rule="nonzero"/><path fill="#66757f" d="M 434.664062 139.9375 C 434.664062 139.9375 364.582031 104.894531 306.179688 163.296875 L 224.417969 245.058594 C 224.417969 245.058594 212.738281 233.378906 201.058594 245.058594 L 189.378906 256.738281 C 189.378906 256.738281 177.695312 268.421875 189.378906 280.101562 L 236.097656 326.820312 C 236.097656 326.820312 247.777344 338.503906 259.460938 326.820312 L 271.140625 315.140625 C 271.140625 315.140625 282.820312 303.460938 271.140625 291.78125 L 270.226562 290.871094 C 279.222656 282.191406 292.691406 273.347656 306.179688 280.101562 L 352.902344 233.378906 C 352.902344 233.378906 341.222656 198.339844 364.582031 174.976562 C 387.941406 151.617188 399.625 151.617188 422.984375 151.617188 C 446.34375 151.617188 434.664062 139.9375 434.664062 139.9375 Z M 434.664062 139.9375 " fill-opacity="1" fill-rule="nonzero"/></svg>